<svg width="25" height="29" viewBox="0 0 25 29" fill="none" xmlns="http://www.w3.org/2000/svg">
<path d="M17.6786 27.9644V22.7858H21.8215C22.3708 22.7858 22.8978 22.5675 23.2862 22.1791C23.6746 21.7905 23.8929 21.2637 23.8929 20.7143V12.4286C23.8925 10.4038 23.3525 8.41574 22.3285 6.66899C21.3046 4.92223 19.8335 3.47994 18.067 2.49056C16.3004 1.5012 14.3021 1.0005 12.2777 1.04001C10.2533 1.07953 8.27604 1.65783 6.5494 2.7154C4.82278 3.77294 3.4092 5.27156 2.45414 7.05692C1.49911 8.84231 1.03714 10.85 1.11577 12.8732C1.19443 14.8964 1.81084 16.8622 2.90157 18.568C3.9923 20.2739 5.51795 21.6581 7.32146 22.5787V27.9644" stroke="white" stroke-linecap="round" stroke-linejoin="round"/>
<path d="M9.39304 6.85972C6.53548 8.50953 5.34661 11.9396 6.41849 14.9401C6.66598 15.6329 7.41377 15.9813 8.12489 15.7929C11.723 14.8397 15.3865 12.2612 17.6122 10.2509C18.2018 9.71829 18.3239 8.8282 17.7986 8.232C15.7249 5.87827 12.2142 5.23091 9.39304 6.85972Z" stroke="white" stroke-linecap="round" stroke-linejoin="round"/>
</svg>
